<svg width="69" height="70" viewBox="0 0 69 70" fill="none" xmlns="http://www.w3.org/2000/svg">
<mask id="mask0_628_705" style="mask-type:luminance" maskUnits="userSpaceOnUse" x="0" y="4" width="68" height="61">
<path d="M68 4H0V65H68V4Z" fill="white"/>
</mask>
<g mask="url(#mask0_628_705)">
<path d="M28.8432 11.1243C28.8432 11.1989 28.2216 11.2487 27.227 11.2487C26.2324 11.2487 25.6108 11.2984 25.6108 11.373C25.6108 11.4476 25.2005 11.4973 24.6162 11.4973C24.0319 11.4973 23.6216 11.547 23.6216 11.6216C23.6216 11.6838 23.46 11.7459 23.2735 11.7459C23.0746 11.7459 22.8508 11.8454 22.7513 11.9946C22.6519 12.1313 22.5027 12.2432 22.4032 12.2432C22.1919 12.2432 21.881 12.554 21.881 12.7654C21.881 12.8649 21.7692 13.0141 21.6324 13.1135C21.4956 13.213 21.3837 13.3622 21.3837 13.4616C21.3837 13.7103 20.9859 14.0832 20.9113 13.8843C20.8864 13.8097 20.7621 13.7351 20.6254 13.7351C20.501 13.7351 20.3892 13.673 20.3892 13.6108C20.3892 13.5362 20.2275 13.4865 20.0162 13.4865C19.8173 13.4865 19.6432 13.4243 19.6432 13.3622C19.6432 13.2876 19.2702 13.2378 18.7729 13.2378C18.2756 13.2378 17.9027 13.2876 17.9027 13.3622C17.9027 13.4243 17.741 13.4865 17.5297 13.4865C17.3308 13.4865 17.1567 13.5362 17.1567 13.6108C17.1567 13.673 17.0573 13.7351 16.9329 13.7351C16.8086 13.7351 16.6346 13.847 16.5351 13.9838C16.4356 14.1205 16.274 14.2324 16.1621 14.2324C16.0502 14.2324 15.8886 14.3443 15.7892 14.4811C15.6897 14.6178 15.5281 14.7297 15.4162 14.7297C15.3043 14.7297 15.1427 14.8416 15.0432 14.9784C14.9437 15.1151 14.7821 15.227 14.6702 15.227C14.5583 15.227 14.3967 15.3389 14.2973 15.4757C14.1978 15.6124 14.0486 15.7243 13.9616 15.7243C13.7254 15.7243 12.4324 17.0422 12.4324 17.2784C12.4324 17.3778 12.3827 17.4649 12.3081 17.4649C12.2459 17.4649 12.1837 17.6265 12.1837 17.8378C12.1837 18.0368 12.134 18.2108 12.0594 18.2108C11.9848 18.2108 11.9351 18.6211 11.9351 19.2054C11.9351 19.7897 11.9848 20.2 12.0594 20.2C12.134 20.2 12.1837 20.3119 12.1837 20.4486C12.1837 20.6476 12.0967 20.6973 11.8108 20.6973C11.6119 20.6973 11.4378 20.747 11.4378 20.8216C11.4378 20.8838 11.214 20.9459 10.9405 20.9459C10.667 20.9459 10.4432 20.9957 10.4432 21.0703C10.4432 21.1324 10.3313 21.1946 10.1946 21.1946C10.0578 21.1946 9.94594 21.2443 9.94594 21.3189C9.94594 21.3811 9.85894 21.4432 9.75944 21.4432C9.51084 21.4432 8.70271 22.2514 8.70271 22.5C8.70271 22.5995 8.65297 22.6865 8.57838 22.6865C8.51622 22.6865 8.45406 22.7984 8.45406 22.9351C8.45406 23.0719 8.40433 23.1838 8.32973 23.1838C8.26757 23.1838 8.20541 23.3454 8.20541 23.5568C8.20541 23.7557 8.15568 23.9297 8.08108 23.9297C8.01892 23.9297 7.95676 24.0914 7.95676 24.3027C7.95676 24.5016 7.90703 24.6757 7.83243 24.6757C7.77027 24.6757 7.70811 24.7876 7.70811 24.9243C7.70811 25.0611 7.65838 25.173 7.58379 25.173C7.52162 25.173 7.45946 25.3346 7.45946 25.5459C7.45946 25.7449 7.40973 25.9189 7.33514 25.9189C7.27298 25.9189 7.21081 26.0805 7.21081 26.2919C7.21081 26.4908 7.16108 26.6649 7.08649 26.6649C7.02433 26.6649 6.96216 26.8265 6.96216 27.0378C6.96216 27.2368 6.91243 27.4108 6.83784 27.4108C6.77568 27.4108 6.71352 27.5227 6.71352 27.6595C6.71352 27.7962 6.66379 27.9081 6.58919 27.9081C6.52703 27.9081 6.46487 28.1816 6.46487 28.5173C6.46487 28.8903 6.4027 29.1638 6.31568 29.2011C6.19135 29.2632 6.19135 29.2881 6.31568 29.3503C6.4027 29.3876 6.46487 29.6611 6.46487 30.0341C6.46487 30.3697 6.52703 30.6432 6.58919 30.6432C6.66379 30.6432 6.71352 30.7551 6.71352 30.8919C6.71352 31.0286 6.77568 31.1405 6.83784 31.1405C6.91243 31.1405 6.96216 31.2524 6.96216 31.3892C6.96216 31.5259 7.02433 31.6378 7.08649 31.6378C7.16108 31.6378 7.21081 31.7497 7.21081 31.8865C7.21081 32.0978 7.12379 32.1351 6.71352 32.1351C6.44 32.1351 6.21622 32.1849 6.21622 32.2595C6.21622 32.3216 6.12919 32.3838 6.0173 32.3838C5.90541 32.3838 5.65676 32.5454 5.47027 32.7568C5.28379 32.9557 5.06 33.1297 4.98541 33.1297C4.78649 33.1297 4.22703 33.7016 4.22703 33.9005C4.22703 34 4.11514 34.1492 3.97838 34.2486C3.84162 34.3481 3.72973 34.5222 3.72973 34.6465C3.72973 34.7708 3.68 34.8703 3.60541 34.8703C3.54325 34.8703 3.48108 35.0319 3.48108 35.2432C3.48108 35.4422 3.43135 35.6162 3.35676 35.6162C3.28216 35.6162 3.23243 35.9519 3.23243 36.3622C3.23243 36.7724 3.18271 37.1081 3.10811 37.1081C3.03352 37.1081 2.98379 37.6924 2.98379 38.6C2.98379 39.5076 2.93406 40.0919 2.85946 40.0919C2.7973 40.0919 2.73514 40.3654 2.73514 40.7135C2.73514 41.0492 2.7973 41.3351 2.85946 41.3351C2.93406 41.3351 2.98379 41.5589 2.98379 41.8324C2.98379 42.1059 3.04595 42.3297 3.10811 42.3297C3.18271 42.3297 3.23243 42.4292 3.23243 42.5535C3.23243 42.6778 3.34433 42.8519 3.48108 42.9514C3.61784 43.0508 3.72973 43.2124 3.72973 43.3243C3.72973 43.4362 3.84162 43.5978 3.97838 43.6973C4.32649 43.9459 4.28919 44.0703 3.85406 44.0703C3.65514 44.0703 3.48108 44.12 3.48108 44.1946C3.48108 44.2568 3.36919 44.3189 3.23243 44.3189C3.09568 44.3189 2.98379 44.3686 2.98379 44.4432C2.98379 44.5054 2.89676 44.5676 2.7973 44.5676C2.54865 44.5676 1.49189 45.6243 1.49189 45.873C1.49189 45.9724 1.44216 46.0595 1.36757 46.0595C1.30541 46.0595 1.24325 46.1714 1.24325 46.3081C1.24325 46.4449 1.19352 46.5568 1.11892 46.5568C1.05676 46.5568 0.994598 46.7805 0.994598 47.0541C0.994598 47.3276 0.944868 47.5514 0.870268 47.5514C0.808108 47.5514 0.745948 47.8249 0.745948 48.173C0.745948 48.5086 0.696218 48.7946 0.621618 48.7946C0.547028 48.7946 0.497298 49.1303 0.497298 49.5405C0.497298 49.9508 0.447568 50.2865 0.372973 50.2865C0.298379 50.2865 0.248649 50.6222 0.248649 51.0324C0.248649 51.4427 0.198919 51.7784 0.124325 51.7784C0.062163 51.7784 0 52.0519 0 52.4C0 52.7357 0.062163 53.0216 0.124325 53.0216C0.198919 53.0216 0.248649 53.2454 0.248649 53.5189C0.248649 53.7924 0.310811 54.0162 0.372973 54.0162C0.447568 54.0162 0.497298 54.1281 0.497298 54.2649C0.497298 54.4016 0.559458 54.5135 0.621618 54.5135C0.696218 54.5135 0.745948 54.6005 0.745948 54.7C0.745948 54.9362 1.79027 56.0054 2.02649 56.0054C2.11352 56.0054 2.26271 56.1173 2.36216 56.2541C2.46162 56.4032 2.68541 56.5027 2.88433 56.5027C3.07081 56.5027 3.23243 56.5524 3.23243 56.627C3.23243 56.6892 3.40649 56.7514 3.60541 56.7514C3.81676 56.7514 3.97838 56.8011 3.97838 56.8757C3.97838 56.9503 4.43838 57 5.0973 57C5.75622 57 6.21622 56.9503 6.21622 56.8757C6.21622 56.8011 6.44 56.7514 6.71352 56.7514C6.98703 56.7514 7.21081 56.6892 7.21081 56.627C7.21081 56.5524 7.3227 56.5027 7.45946 56.5027C7.59622 56.5027 7.70811 56.4405 7.70811 56.3784C7.70811 56.3038 7.79514 56.2541 7.90703 56.2541C8.01892 56.2541 8.26757 56.08 8.45406 55.8811C8.64054 55.6697 8.88919 55.5081 9.00108 55.5081C9.11297 55.5081 9.2 55.4211 9.2 55.3216C9.2 55.2097 9.39892 54.9362 9.63514 54.7L10.0578 54.2649H11.3135H12.5692L12.9919 53.8297C13.2281 53.5935 13.427 53.32 13.427 53.2081C13.427 53.1086 13.4892 53.0216 13.5513 53.0216C13.6259 53.0216 13.6756 52.7978 13.6756 52.5243C13.6756 52.2508 13.7378 52.027 13.8 52.027C13.8746 52.027 13.9243 51.6168 13.9243 51.0324C13.9243 50.4481 13.8746 50.0378 13.8 50.0378C13.7378 50.0378 13.6756 49.9259 13.6756 49.7892C13.6756 49.6524 13.6259 49.5405 13.5513 49.5405C13.4892 49.5405 13.427 49.2546 13.427 48.9189C13.427 48.5708 13.4892 48.2973 13.5513 48.2973C13.6259 48.2973 13.6756 48.0735 13.6756 47.8C13.6756 47.5265 13.7378 47.3027 13.8 47.3027C13.8746 47.3027 13.9243 47.0789 13.9243 46.8054C13.9243 46.5319 13.9864 46.3081 14.0486 46.3081C14.1232 46.3081 14.1729 46.0843 14.1729 45.8108C14.1729 45.5373 14.2351 45.3135 14.2973 45.3135C14.3719 45.3135 14.4216 45.0897 14.4216 44.8162C14.4216 44.5427 14.4837 44.3189 14.5459 44.3189C14.6205 44.3189 14.6702 44.0951 14.6702 43.8216C14.6702 43.5481 14.7324 43.3243 14.7946 43.3243C14.8692 43.3243 14.9189 43.1751 14.9189 43.0011C14.9189 42.6778 15.1675 42.3297 15.4162 42.3297C15.6275 42.3297 15.9135 42.0065 15.9135 41.7827C15.9135 41.6708 15.9756 41.5838 16.0378 41.5838C16.1124 41.5838 16.1621 41.2481 16.1621 40.8378C16.1621 40.4276 16.2119 40.0919 16.2864 40.0919C16.361 40.0919 16.4108 39.6816 16.4108 39.0973C16.4108 38.513 16.361 38.1027 16.2864 38.1027C16.2119 38.1027 16.1621 37.7297 16.1621 37.2324C16.1621 36.7351 16.2119 36.3622 16.2864 36.3622C16.361 36.3622 16.4108 36.0265 16.4108 35.6162C16.4108 35.2059 16.4605 34.8703 16.5351 34.8703C16.6097 34.8703 16.6594 34.5346 16.6594 34.1243C16.6594 33.7141 16.7092 33.3784 16.7837 33.3784C16.8583 33.3784 16.9081 33.2914 16.9081 33.1795C16.9081 32.9557 17.194 32.6324 17.4054 32.6324C17.6664 32.6324 18.4 31.7746 18.4 31.4514C18.4 31.2773 18.4621 31.1405 18.5243 31.1405C18.5989 31.1405 18.6486 30.9665 18.6486 30.7676C18.6486 30.5562 18.7108 30.3946 18.7729 30.3946C18.8475 30.3946 18.8973 30.2205 18.8973 30.0216C18.8973 29.8103 18.9594 29.6486 19.0216 29.6486C19.0962 29.6486 19.1459 29.4249 19.1459 29.1514C19.1459 28.8778 19.0962 28.6541 19.0216 28.6541C18.9594 28.6541 18.8973 28.48 18.8973 28.2811C18.8973 28.0697 18.8475 27.9081 18.7729 27.9081C18.7108 27.9081 18.6486 27.7341 18.6486 27.5351C18.6486 27.3238 18.7108 27.1622 18.7729 27.1622C18.8475 27.1622 18.8973 27.0503 18.8973 26.9135C18.8973 26.7768 18.9594 26.6649 19.0216 26.6649C19.0962 26.6649 19.1459 26.5778 19.1459 26.4659C19.1459 26.1427 19.4692 25.9189 19.9416 25.9189C20.1902 25.9189 20.3892 25.8568 20.3892 25.7946C20.3892 25.72 20.501 25.6703 20.6378 25.6703C20.7746 25.6703 20.8864 25.6081 20.8864 25.5459C20.8864 25.4713 20.9983 25.4216 21.1351 25.4216C21.2719 25.4216 21.3837 25.3595 21.3837 25.2973C21.3837 25.2227 21.4832 25.173 21.6075 25.173C21.7319 25.173 21.9059 25.0611 22.0054 24.9243C22.1048 24.7876 22.254 24.6757 22.3535 24.6757C22.5773 24.6757 22.8756 24.3649 22.8756 24.1286C22.8756 24.0168 22.9378 23.9297 23 23.9297C23.0746 23.9297 23.1243 23.6438 23.1243 23.3081C23.1243 22.7735 23.1616 22.6865 23.3729 22.6865C23.5097 22.6865 23.6216 22.6243 23.6216 22.5622C23.6216 22.4876 23.7335 22.4378 23.8702 22.4378C24.007 22.4378 24.1189 22.3757 24.1189 22.3135C24.1189 22.2389 24.2308 22.1892 24.3675 22.1892C24.5043 22.1892 24.6162 22.127 24.6162 22.0649C24.6162 21.9903 24.7281 21.9405 24.8648 21.9405C25.0016 21.9405 25.1135 21.8784 25.1135 21.8162C25.1135 21.5924 25.5486 21.6795 25.7351 21.9405C25.8346 22.0897 26.0583 22.1892 26.2573 22.1892C26.4437 22.1892 26.6054 22.2389 26.6054 22.3135C26.6054 22.3881 26.941 22.4378 27.3513 22.4378C27.7616 22.4378 28.0973 22.3881 28.0973 22.3135C28.0973 22.2389 28.5946 22.1892 29.3405 22.1892C30.0864 22.1892 30.5837 22.1395 30.5837 22.0649C30.5837 21.9903 30.6708 21.9405 30.7702 21.9405C30.994 21.9405 31.827 21.1449 31.827 20.9459C31.827 20.5357 32.1875 20.4486 33.7416 20.4486C35.221 20.4486 35.3081 20.4611 35.3081 20.6973C35.3081 20.8341 35.3702 20.9459 35.4324 20.9459C35.507 20.9459 35.5567 21.033 35.5567 21.1324C35.5567 21.3811 36.1162 21.9405 36.3648 21.9405C36.4643 21.9405 36.5513 21.9903 36.5513 22.0649C36.5513 22.1395 37.0486 22.1892 37.7946 22.1892C38.5405 22.1892 39.0378 22.2389 39.0378 22.3135C39.0378 22.3881 39.4108 22.4378 39.9081 22.4378C40.4054 22.4378 40.7783 22.3881 40.7783 22.3135C40.7783 22.2389 40.8778 22.1892 41.0021 22.1892C41.1264 22.1892 41.3005 22.0773 41.4 21.9405C41.5864 21.6795 42.0216 21.5924 42.0216 21.8162C42.0216 21.8784 42.1335 21.9405 42.2702 21.9405C42.407 21.9405 42.5189 21.9903 42.5189 22.0649C42.5189 22.127 42.6308 22.1892 42.7675 22.1892C42.9043 22.1892 43.0162 22.2389 43.0162 22.3135C43.0162 22.3757 43.1281 22.4378 43.2648 22.4378C43.4016 22.4378 43.5135 22.4876 43.5135 22.5622C43.5135 22.6243 43.6254 22.6865 43.7621 22.6865C43.9735 22.6865 44.0108 22.7735 44.0108 23.3081C44.0108 23.6438 44.0729 23.9297 44.1351 23.9297C44.2097 23.9297 44.2594 24.0168 44.2594 24.1286C44.2594 24.3649 44.5578 24.6757 44.7816 24.6757C44.881 24.6757 45.0302 24.7876 45.1297 24.9243C45.2291 25.0611 45.4032 25.173 45.5275 25.173C45.6519 25.173 45.7513 25.2227 45.7513 25.2973C45.7513 25.3595 45.8632 25.4216 46 25.4216C46.1367 25.4216 46.2486 25.4713 46.2486 25.5459C46.2486 25.6081 46.3605 25.6703 46.4973 25.6703C46.634 25.6703 46.7459 25.72 46.7459 25.7946C46.7459 25.8568 46.9448 25.9189 47.1935 25.9189C47.6659 25.9189 47.9891 26.1427 47.9891 26.4659C47.9891 26.5778 48.0513 26.6649 48.1135 26.6649C48.1881 26.6649 48.2378 26.7519 48.2378 26.8638C48.2378 26.9757 48.3621 27.187 48.5237 27.3238C48.7102 27.4854 48.7475 27.5849 48.6481 27.6222C48.561 27.6595 48.4864 27.7838 48.4864 27.9205C48.4864 28.0449 48.4367 28.1568 48.3621 28.1568C48.2875 28.1568 48.2378 28.567 48.2378 29.1514C48.2378 29.7357 48.2875 30.1459 48.3621 30.1459C48.4367 30.1459 48.4864 30.3076 48.4864 30.5189C48.4864 30.7178 48.5486 30.8919 48.6108 30.8919C48.6854 30.8919 48.7351 31.0535 48.7351 31.2649C48.7351 31.4638 48.7973 31.6378 48.8594 31.6378C48.934 31.6378 48.9837 31.7249 48.9837 31.8243C48.9837 32.0481 49.5308 32.6324 49.7297 32.6324C49.941 32.6324 50.227 32.9557 50.227 33.1795C50.227 33.2914 50.2892 33.3784 50.3513 33.3784C50.4259 33.3784 50.4756 33.7141 50.4756 34.1243C50.4756 34.5346 50.5254 34.8703 50.6 34.8703C50.6746 34.8703 50.7243 35.2059 50.7243 35.6162C50.7243 36.0265 50.774 36.3622 50.8486 36.3622C50.9232 36.3622 50.9729 36.7351 50.9729 37.2324C50.9729 37.7297 50.9232 38.1027 50.8486 38.1027C50.774 38.1027 50.7243 38.4757 50.7243 38.973C50.7243 39.4703 50.774 39.8432 50.8486 39.8432C50.9232 39.8432 50.9729 40.2162 50.9729 40.7135C50.9729 41.2108 51.0227 41.5838 51.0973 41.5838C51.1719 41.5838 51.2216 41.6708 51.2216 41.7827C51.2216 42.0065 51.5075 42.3297 51.7189 42.3297C51.9302 42.3297 52.2162 42.653 52.2162 42.8768C52.2162 42.9886 52.2783 43.0757 52.3405 43.0757C52.4151 43.0757 52.4648 43.2995 52.4648 43.573C52.4648 43.8465 52.527 44.0703 52.5892 44.0703C52.6637 44.0703 52.7135 44.2941 52.7135 44.5676C52.7135 44.8411 52.7756 45.0649 52.8378 45.0649C52.9124 45.0649 52.9621 45.2886 52.9621 45.5622C52.9621 45.8357 53.0243 46.0595 53.0864 46.0595C53.161 46.0595 53.2108 46.2832 53.2108 46.5568C53.2108 46.8303 53.2729 47.0541 53.3351 47.0541C53.4097 47.0541 53.4594 47.2778 53.4594 47.5514C53.4594 47.8249 53.5216 48.0486 53.5837 48.0486C53.6583 48.0486 53.7081 48.3843 53.7081 48.7946C53.7081 49.2049 53.6583 49.5405 53.5837 49.5405C53.5216 49.5405 53.4594 49.6524 53.4594 49.7892C53.4594 49.9259 53.4097 50.0378 53.3351 50.0378C53.2605 50.0378 53.2108 50.4481 53.2108 51.0324C53.2108 51.6168 53.2605 52.027 53.3351 52.027C53.4097 52.027 53.4594 52.2508 53.4594 52.5243C53.4594 52.7978 53.5216 53.0216 53.5837 53.0216C53.6583 53.0216 53.7081 53.1086 53.7081 53.2081C53.7081 53.32 53.907 53.5935 54.1432 53.8297L54.5659 54.2649H55.8216H57.0773L57.5 54.7C57.7362 54.9362 57.9351 55.2097 57.9351 55.3216C57.9351 55.4211 58.0221 55.5081 58.134 55.5081C58.2459 55.5081 58.4946 55.6697 58.681 55.8811C58.8675 56.08 59.1162 56.2541 59.2281 56.2541C59.34 56.2541 59.427 56.3038 59.427 56.3784C59.427 56.4405 59.5389 56.5027 59.6756 56.5027C59.8124 56.5027 59.9243 56.5524 59.9243 56.627C59.9243 56.6892 60.1481 56.7514 60.4216 56.7514C60.6951 56.7514 60.9189 56.8011 60.9189 56.8757C60.9189 56.9503 61.3789 57 62.0378 57C62.6967 57 63.1567 56.9503 63.1567 56.8757C63.1567 56.8011 63.3308 56.7514 63.5297 56.7514C63.741 56.7514 63.9027 56.6892 63.9027 56.627C63.9027 56.5524 64.0643 56.5027 64.2508 56.5027C64.4497 56.5027 64.6735 56.4032 64.7729 56.2541C64.8724 56.1173 65.0216 56.0054 65.1086 56.0054C65.3448 56.0054 66.3891 54.9362 66.3891 54.7C66.3891 54.6005 66.4513 54.5135 66.5135 54.5135C66.5881 54.5135 66.6378 54.4016 66.6378 54.2649C66.6378 54.1281 66.7 54.0162 66.7621 54.0162C66.8367 54.0162 66.8864 53.8422 66.8864 53.6432C66.8864 53.4319 66.9486 53.2703 67.0108 53.2703C67.0854 53.2703 67.1351 52.9346 67.1351 52.5243C67.1351 52.1141 67.0854 51.7784 67.0108 51.7784C66.9362 51.7784 66.8864 51.4427 66.8864 51.0324C66.8864 50.6222 66.8367 50.2865 66.7621 50.2865C66.6875 50.2865 66.6378 49.9508 66.6378 49.5405C66.6378 49.1303 66.5881 48.7946 66.5135 48.7946C66.4389 48.7946 66.3891 48.4589 66.3891 48.0486C66.3891 47.6384 66.3394 47.3027 66.2648 47.3027C66.2027 47.3027 66.1405 47.1286 66.1405 46.9297C66.1405 46.7184 66.0908 46.5568 66.0162 46.5568C65.954 46.5568 65.8919 46.4449 65.8919 46.3081C65.8919 46.1714 65.8421 46.0595 65.7675 46.0595C65.7054 46.0595 65.6432 45.9724 65.6432 45.873C65.6432 45.6243 64.5864 44.5676 64.3378 44.5676C64.2383 44.5676 64.1513 44.5054 64.1513 44.4432C64.1513 44.3686 64.0394 44.3189 63.9027 44.3189C63.7659 44.3189 63.654 44.2568 63.654 44.1946C63.654 44.12 63.4924 44.0703 63.281 44.0703C62.8459 44.0703 62.8086 43.9459 63.1567 43.6973C63.2935 43.5978 63.4054 43.4362 63.4054 43.3243C63.4054 43.2124 63.5173 43.0508 63.654 42.9514C63.7908 42.8519 63.9027 42.6778 63.9027 42.5535C63.9027 42.4292 63.9648 42.3297 64.027 42.3297C64.1016 42.3297 64.1513 42.1059 64.1513 41.8324C64.1513 41.5589 64.2135 41.3351 64.2756 41.3351C64.3502 41.3351 64.4 40.9995 64.4 40.5892C64.4 40.1789 64.3502 39.8432 64.2756 39.8432C64.201 39.8432 64.1513 39.3086 64.1513 38.4757C64.1513 37.6427 64.1016 37.1081 64.027 37.1081C63.9524 37.1081 63.9027 36.7724 63.9027 36.3622C63.9027 35.9519 63.8529 35.6162 63.7783 35.6162C63.7162 35.6162 63.654 35.4422 63.654 35.2432C63.654 35.0319 63.6043 34.8703 63.5297 34.8703C63.4675 34.8703 63.4054 34.7708 63.4054 34.6465C63.4054 34.5222 63.2935 34.3481 63.1567 34.2486C63.02 34.1492 62.9081 34 62.9081 33.9005C62.9081 33.7016 62.3486 33.1297 62.1497 33.1297C62.0751 33.1297 61.8513 32.9557 61.6648 32.7568C61.4783 32.5454 61.2297 32.3838 61.1178 32.3838C61.0059 32.3838 60.9189 32.3216 60.9189 32.2595C60.9189 32.1849 60.6951 32.1351 60.4216 32.1351C60.0113 32.1351 59.9243 32.0978 59.9243 31.8865C59.9243 31.7497 59.9864 31.6378 60.0486 31.6378C60.1232 31.6378 60.1729 31.5259 60.1729 31.3892C60.1729 31.2524 60.2351 31.1405 60.2973 31.1405C60.3718 31.1405 60.4216 31.0286 60.4216 30.8919C60.4216 30.7551 60.4837 30.6432 60.5459 30.6432C60.6205 30.6432 60.6702 30.3697 60.6702 30.0341C60.6702 29.6611 60.7324 29.3876 60.8319 29.3503C60.9562 29.2881 60.9562 29.2632 60.8319 29.2011C60.7324 29.1638 60.6702 28.8903 60.6702 28.5173C60.6702 28.1816 60.6205 27.9081 60.5459 27.9081C60.4837 27.9081 60.4216 27.7962 60.4216 27.6595C60.4216 27.5227 60.3718 27.4108 60.2973 27.4108C60.2351 27.4108 60.1729 27.2368 60.1729 27.0378C60.1729 26.8265 60.1232 26.6649 60.0486 26.6649C59.9864 26.6649 59.9243 26.4908 59.9243 26.2919C59.9243 26.0805 59.8746 25.9189 59.8 25.9189C59.7378 25.9189 59.6756 25.7449 59.6756 25.5459C59.6756 25.3346 59.6259 25.173 59.5513 25.173C59.4891 25.173 59.427 25.0611 59.427 24.9243C59.427 24.7876 59.3773 24.6757 59.3027 24.6757C59.2405 24.6757 59.1783 24.5016 59.1783 24.3027C59.1783 24.0914 59.1286 23.9297 59.054 23.9297C58.9919 23.9297 58.9297 23.7557 58.9297 23.5568C58.9297 23.3454 58.88 23.1838 58.8054 23.1838C58.7432 23.1838 58.681 23.0719 58.681 22.9351C58.681 22.7984 58.6313 22.6865 58.5567 22.6865C58.4946 22.6865 58.4324 22.5995 58.4324 22.5C58.4324 22.2514 57.6243 21.4432 57.3756 21.4432C57.2762 21.4432 57.1891 21.3811 57.1891 21.3189C57.1891 21.2443 57.0773 21.1946 56.9405 21.1946C56.8037 21.1946 56.6919 21.1324 56.6919 21.0703C56.6919 20.9957 56.4681 20.9459 56.1946 20.9459C55.921 20.9459 55.6973 20.8838 55.6973 20.8216C55.6973 20.747 55.5356 20.6973 55.3243 20.6973C55.0383 20.6973 54.9513 20.6476 54.9513 20.4486C54.9513 20.3119 55.0135 20.2 55.0756 20.2C55.1502 20.2 55.2 19.7897 55.2 19.2054C55.2 18.6211 55.1502 18.2108 55.0756 18.2108C55.0135 18.2108 54.9513 18.0368 54.9513 17.8378C54.9513 17.6265 54.9016 17.4649 54.827 17.4649C54.7648 17.4649 54.7027 17.3778 54.7027 17.2784C54.7027 17.0422 53.4097 15.7243 53.1735 15.7243C53.0864 15.7243 52.9373 15.6124 52.8378 15.4757C52.7383 15.3389 52.5767 15.227 52.4648 15.227C52.3529 15.227 52.1913 15.1151 52.0919 14.9784C51.9924 14.8416 51.8308 14.7297 51.7189 14.7297C51.607 14.7297 51.4454 14.6178 51.3459 14.4811C51.2464 14.3443 51.0848 14.2324 50.9729 14.2324C50.861 14.2324 50.6994 14.1205 50.6 13.9838C50.5005 13.847 50.3264 13.7351 50.2021 13.7351C50.0778 13.7351 49.9783 13.673 49.9783 13.6108C49.9783 13.5362 49.8167 13.4865 49.6054 13.4865C49.4064 13.4865 49.2324 13.4243 49.2324 13.3622C49.2324 13.2876 48.8594 13.2378 48.3621 13.2378C47.8648 13.2378 47.4919 13.2876 47.4919 13.3622C47.4919 13.4243 47.3302 13.4865 47.1189 13.4865C46.92 13.4865 46.7459 13.5362 46.7459 13.6108C46.7459 13.673 46.634 13.7351 46.4973 13.7351C46.3605 13.7351 46.2486 13.7849 46.2486 13.8595C46.2486 13.9216 46.1367 13.9838 46 13.9838C45.8135 13.9838 45.7513 13.8968 45.7513 13.6605C45.7513 13.4616 45.6021 13.2005 45.3783 12.9892C45.1794 12.8027 45.0054 12.554 45.0054 12.4422C45.0054 12.3303 44.9059 12.2432 44.7816 12.2432C44.6573 12.2432 44.4832 12.1313 44.3837 11.9946C44.2843 11.8578 44.1102 11.7459 43.9859 11.7459C43.8616 11.7459 43.7621 11.6838 43.7621 11.6216C43.7621 11.547 43.4886 11.4973 43.1405 11.4973C42.8048 11.4973 42.5189 11.4351 42.5189 11.373C42.5189 11.2984 41.7729 11.2487 40.5297 11.2487C39.2864 11.2487 38.5405 11.1989 38.5405 11.1243C38.5405 11.0497 37.9562 11 37.0486 11C36.141 11 35.5567 11.0497 35.5567 11.1243C35.5567 11.1865 35.3951 11.2487 35.2086 11.2487C35.0097 11.2487 34.7859 11.3481 34.6864 11.4973C34.587 11.6341 34.4254 11.7459 34.3135 11.7459C34.2016 11.7459 34.04 11.8578 33.9405 11.9946C33.841 12.1313 33.6794 12.2432 33.5675 12.2432C33.4556 12.2432 33.294 12.1313 33.1946 11.9946C33.0951 11.8578 32.9335 11.7459 32.8216 11.7459C32.7097 11.7459 32.5481 11.6341 32.4486 11.4973C32.3491 11.3481 32.1254 11.2487 31.9264 11.2487C31.74 11.2487 31.5783 11.1865 31.5783 11.1243C31.5783 11.0497 31.0437 11 30.2108 11C29.3778 11 28.8432 11.0497 28.8432 11.1243ZM31.3297 12.6162C31.3297 12.6784 31.4167 12.7405 31.5162 12.7405C31.7648 12.7405 32.5729 13.5486 32.5729 13.7973C32.5729 13.8968 32.6351 13.9838 32.6973 13.9838C32.7719 13.9838 32.8216 14.3568 32.8216 14.8541C32.8216 15.3513 32.7719 15.7243 32.6973 15.7243C32.6351 15.7243 32.5729 15.8114 32.5729 15.9108C32.5729 16.2341 31.5037 17.2162 31.1432 17.2162C30.9691 17.2162 30.8324 17.2659 30.8324 17.3405C30.8324 17.4151 30.3351 17.4649 29.5892 17.4649C28.8432 17.4649 28.3459 17.5146 28.3459 17.5892C28.3459 17.6638 27.7616 17.7135 26.854 17.7135C25.9464 17.7135 25.3621 17.7632 25.3621 17.8378C25.3621 17.9 25.2005 17.9622 24.9891 17.9622C24.7902 17.9622 24.6162 17.9 24.6162 17.8378C24.6162 17.7632 24.4794 17.7135 24.3054 17.7135C23.9448 17.7135 22.8756 16.7313 22.8756 16.4081C22.8756 16.3086 22.8259 16.2216 22.7513 16.2216C22.6767 16.2216 22.627 15.8114 22.627 15.227C22.627 14.6427 22.6767 14.2324 22.7513 14.2324C22.8259 14.2324 22.8756 14.1454 22.8756 14.0459C22.8756 13.7973 23.4351 13.2378 23.6837 13.2378C23.7832 13.2378 23.8702 13.1757 23.8702 13.1135C23.8702 13.0389 24.2432 12.9892 24.7405 12.9892C25.2378 12.9892 25.6108 12.9395 25.6108 12.8649C25.6108 12.7903 26.2324 12.7405 27.227 12.7405C28.2216 12.7405 28.8432 12.6908 28.8432 12.6162C28.8432 12.5416 29.3405 12.4919 30.0864 12.4919C30.8324 12.4919 31.3297 12.5416 31.3297 12.6162ZM38.5405 12.6162C38.5405 12.6908 39.2491 12.7405 40.4054 12.7405C41.5616 12.7405 42.2702 12.7903 42.2702 12.8649C42.2702 12.927 42.5189 12.9892 42.8297 12.9892C43.3146 12.9892 43.4637 13.0514 43.8243 13.4243C44.0605 13.6605 44.2594 13.9341 44.2594 14.0459C44.2594 14.1454 44.3216 14.2324 44.3837 14.2324C44.4583 14.2324 44.5081 14.6427 44.5081 15.227C44.5081 15.8114 44.4583 16.2216 44.3837 16.2216C44.3216 16.2216 44.2594 16.3086 44.2594 16.4081C44.2594 16.6568 43.4513 17.4649 43.2027 17.4649C43.1032 17.4649 43.0162 17.5146 43.0162 17.5892C43.0162 17.6638 42.3075 17.7135 41.1513 17.7135C39.9951 17.7135 39.2864 17.6638 39.2864 17.5892C39.2864 17.5146 38.7021 17.4649 37.7946 17.4649C36.887 17.4649 36.3027 17.4151 36.3027 17.3405C36.3027 17.2659 36.141 17.2162 35.9297 17.2162C35.7308 17.2162 35.5567 17.1541 35.5567 17.0919C35.5567 17.0173 35.4697 16.9676 35.3578 16.9676C35.1216 16.9676 34.8108 16.6692 34.8108 16.4454C34.8108 16.3459 34.6989 16.1968 34.5621 16.0973C34.3508 15.9481 34.3135 15.7741 34.3135 14.9535C34.3135 14.3941 34.3632 13.9838 34.4378 13.9838C34.5124 13.9838 34.5621 13.8968 34.5621 13.7973C34.5621 13.6854 34.761 13.4119 34.9973 13.1757C35.2335 12.9395 35.507 12.7405 35.6189 12.7405C35.7183 12.7405 35.8054 12.6784 35.8054 12.6162C35.8054 12.5416 36.34 12.4919 37.1729 12.4919C38.0059 12.4919 38.5405 12.5416 38.5405 12.6162ZM19.3946 14.8541C19.3946 14.9162 19.5064 14.9784 19.6432 14.9784C19.78 14.9784 19.8919 15.0281 19.8919 15.1027C19.8919 15.1649 19.9789 15.227 20.0783 15.227C20.4016 15.227 21.1351 16.0476 21.1351 16.4081C21.1351 16.5822 21.1973 16.7189 21.2594 16.7189C21.334 16.7189 21.3837 16.8308 21.3837 16.9676C21.3837 17.1043 21.4459 17.2162 21.5081 17.2162C21.5827 17.2162 21.6324 17.5519 21.6324 17.9622C21.6324 18.3724 21.5827 18.7081 21.5081 18.7081C21.4459 18.7081 21.3837 18.82 21.3837 18.9568C21.3837 19.0935 21.334 19.2054 21.2594 19.2054C21.1973 19.2054 21.1351 19.2924 21.1351 19.3919C21.1351 19.6281 20.5881 20.2 20.3643 20.2C20.2648 20.2 20.1156 20.3119 20.0162 20.4486C19.9167 20.5854 19.7551 20.6973 19.6432 20.6973C19.5313 20.6973 19.3697 20.8092 19.2702 20.9459C19.1708 21.0827 19.0092 21.1946 18.8973 21.1946C18.7854 21.1946 18.6237 21.3065 18.5243 21.4432C18.4248 21.58 18.2632 21.6919 18.1513 21.6919C18.0394 21.6919 17.8778 21.8038 17.7783 21.9405C17.6789 22.0897 17.4551 22.1892 17.2562 22.1892C17.0697 22.1892 16.9081 22.2389 16.9081 22.3135C16.9081 22.3757 16.7464 22.4378 16.5351 22.4378C16.3362 22.4378 16.1621 22.3757 16.1621 22.3135C16.1621 22.2389 16.0005 22.1892 15.7892 22.1892C15.5902 22.1892 15.4162 22.127 15.4162 22.0649C15.4162 21.9903 15.3292 21.9405 15.2297 21.9405C14.9064 21.9405 13.6756 20.6103 13.6756 20.2622C13.6756 20.0881 13.6259 19.9514 13.5513 19.9514C13.4767 19.9514 13.427 19.6157 13.427 19.2054C13.427 18.7951 13.4767 18.4595 13.5513 18.4595C13.6259 18.4595 13.6756 18.3476 13.6756 18.2108C13.6756 18.0741 13.7378 17.9622 13.8 17.9622C13.8746 17.9622 13.9243 17.8751 13.9243 17.7632C13.9243 17.527 14.2227 17.2162 14.4464 17.2162C14.5459 17.2162 14.6951 17.1043 14.7946 16.9676C14.894 16.8308 15.0556 16.7189 15.1675 16.7189C15.2794 16.7189 15.441 16.607 15.5405 16.4703C15.64 16.3335 15.8016 16.2216 15.9135 16.2216C16.0254 16.2216 16.187 16.1097 16.2864 15.973C16.3859 15.8362 16.5475 15.7243 16.6594 15.7243C16.7713 15.7243 16.9329 15.6124 17.0324 15.4757C17.1319 15.3389 17.3059 15.227 17.4302 15.227C17.5546 15.227 17.654 15.1649 17.654 15.1027C17.654 15.0281 17.7659 14.9784 17.9027 14.9784C18.0394 14.9784 18.1513 14.9162 18.1513 14.8541C18.1513 14.7795 18.4373 14.7297 18.7729 14.7297C19.121 14.7297 19.3946 14.7795 19.3946 14.8541ZM48.9837 14.8541C48.9837 14.9162 49.0956 14.9784 49.2324 14.9784C49.3691 14.9784 49.481 15.0281 49.481 15.1027C49.481 15.1649 49.5805 15.227 49.7048 15.227C49.8291 15.227 50.0032 15.3389 50.1027 15.4757C50.2021 15.6124 50.3637 15.7243 50.4756 15.7243C50.5875 15.7243 50.7491 15.8362 50.8486 15.973C50.9481 16.1097 51.1097 16.2216 51.2216 16.2216C51.3335 16.2216 51.4951 16.3335 51.5946 16.4703C51.694 16.607 51.8556 16.7189 51.9675 16.7189C52.0794 16.7189 52.241 16.8308 52.3405 16.9676C52.44 17.1043 52.5892 17.2162 52.6886 17.2162C52.9124 17.2162 53.2108 17.527 53.2108 17.7632C53.2108 17.8751 53.2729 17.9622 53.3351 17.9622C53.4097 17.9622 53.4594 18.0741 53.4594 18.2108C53.4594 18.3476 53.5216 18.4595 53.5837 18.4595C53.6583 18.4595 53.7081 18.7951 53.7081 19.2054C53.7081 19.6157 53.6583 19.9514 53.5837 19.9514C53.5216 19.9514 53.4594 20.0881 53.4594 20.2622C53.4594 20.6103 52.2286 21.9405 51.9054 21.9405C51.8059 21.9405 51.7189 21.9903 51.7189 22.0649C51.7189 22.127 51.5573 22.1892 51.3459 22.1892C51.147 22.1892 50.9729 22.2389 50.9729 22.3135C50.9729 22.3757 50.8113 22.4378 50.6 22.4378C50.401 22.4378 50.227 22.3757 50.227 22.3135C50.227 22.2389 50.0654 22.1892 49.8789 22.1892C49.68 22.1892 49.4562 22.0897 49.3567 21.9405C49.2573 21.8038 49.0956 21.6919 48.9837 21.6919C48.8719 21.6919 48.7102 21.58 48.6108 21.4432C48.5113 21.3065 48.3497 21.1946 48.2378 21.1946C48.1259 21.1946 47.9643 21.0827 47.8648 20.9459C47.7654 20.8092 47.6037 20.6973 47.4919 20.6973C47.38 20.6973 47.2183 20.5854 47.1189 20.4486C47.0194 20.3119 46.8702 20.2 46.7708 20.2C46.547 20.2 46 19.6281 46 19.3919C46 19.2924 45.9502 19.2054 45.8756 19.2054C45.8135 19.2054 45.7513 19.0935 45.7513 18.9568C45.7513 18.82 45.7016 18.7081 45.627 18.7081C45.5524 18.7081 45.5027 18.3724 45.5027 17.9622C45.5027 17.5519 45.5524 17.2162 45.627 17.2162C45.7016 17.2162 45.7513 17.0422 45.7513 16.8432C45.7513 16.6319 45.8135 16.4703 45.8756 16.4703C45.9502 16.4703 46 16.3832 46 16.2838C46 16.1719 46.1989 15.8984 46.4351 15.6622C46.6713 15.4259 46.9448 15.227 47.0567 15.227C47.1562 15.227 47.2432 15.1649 47.2432 15.1027C47.2432 15.0281 47.3551 14.9784 47.4919 14.9784C47.6286 14.9784 47.7405 14.9162 47.7405 14.8541C47.7405 14.7795 48.0264 14.7297 48.3621 14.7297C48.7102 14.7297 48.9837 14.7795 48.9837 14.8541ZM34.1891 17.9622C34.4502 18.2357 34.7859 18.4595 34.9351 18.4595C35.1837 18.4595 35.5567 18.7205 35.5567 18.8822C35.5567 18.9195 34.7237 18.9568 33.6919 18.9568C31.914 18.9568 31.827 18.9443 31.827 18.7081C31.827 18.5465 31.914 18.4595 32.0756 18.4595C32.2124 18.4595 32.3243 18.3973 32.3243 18.3351C32.3243 18.2605 32.4237 18.2108 32.5481 18.2108C32.66 18.2108 32.8962 18.0368 33.0702 17.8378C33.2443 17.6389 33.4556 17.4649 33.5427 17.4649C33.6421 17.4649 33.9281 17.6886 34.1891 17.9622ZM44.0854 18.8822C44.1848 18.9816 44.2594 19.2054 44.2594 19.3795C44.2594 19.5535 44.3216 19.7027 44.3837 19.7027C44.4583 19.7027 44.5081 19.8022 44.5081 19.9265C44.5081 20.0508 44.62 20.2249 44.7567 20.3243C45.0178 20.5108 45.1048 20.9459 44.881 20.9459C44.8189 20.9459 44.7567 21.0578 44.7567 21.1946C44.7567 21.3314 44.707 21.4432 44.6324 21.4432C44.5702 21.4432 44.5081 21.3811 44.5081 21.3189C44.5081 21.2443 44.3962 21.1946 44.2594 21.1946C44.1227 21.1946 44.0108 21.1324 44.0108 21.0703C44.0108 20.9957 43.8989 20.9459 43.7621 20.9459C43.6254 20.9459 43.5135 20.8838 43.5135 20.8216C43.5135 20.747 43.4016 20.6973 43.2648 20.6973C43.1281 20.6973 43.0162 20.6351 43.0162 20.573C43.0162 20.4984 42.8546 20.4486 42.6432 20.4486C42.2827 20.4486 42.2702 20.4362 42.2702 19.827V19.2054H42.7675C43.041 19.2054 43.2648 19.1432 43.2648 19.0811C43.2648 19.0065 43.3767 18.9568 43.5135 18.9568C43.6502 18.9568 43.7621 18.8946 43.7621 18.8324C43.7621 18.6584 43.874 18.6832 44.0854 18.8822ZM23.6216 19.0811C23.6216 19.1432 23.8827 19.2054 24.1935 19.2054C24.8151 19.2054 25.1135 19.4043 25.1135 19.827C25.1135 20.1876 24.8275 20.4486 24.4421 20.4486C24.2681 20.4486 24.1189 20.4984 24.1189 20.573C24.1189 20.6351 24.007 20.6973 23.8702 20.6973C23.7335 20.6973 23.6216 20.747 23.6216 20.8216C23.6216 20.8838 23.5097 20.9459 23.3729 20.9459C23.2362 20.9459 23.1243 20.9957 23.1243 21.0703C23.1243 21.1324 23.0124 21.1946 22.8756 21.1946C22.7389 21.1946 22.627 21.2443 22.627 21.3189C22.627 21.3811 22.5773 21.4432 22.5027 21.4432C22.4405 21.4432 22.3783 21.3314 22.3783 21.1946C22.3783 21.0578 22.3286 20.9459 22.254 20.9459C22.0302 20.9459 22.1173 20.5108 22.3783 20.3243C22.5151 20.2249 22.627 20.0508 22.627 19.9265C22.627 19.8022 22.6892 19.7027 22.7513 19.7027C22.8259 19.7027 22.8756 19.5286 22.8756 19.3297C22.8756 18.9941 22.9129 18.9568 23.2486 18.9568C23.46 18.9568 23.6216 19.0065 23.6216 19.0811ZM30.3351 19.4416C30.3351 19.7151 30.4097 19.9638 30.4967 20.0011C30.621 20.0632 30.621 20.0881 30.4967 20.1503C30.4097 20.1876 30.3351 20.3243 30.3351 20.4611C30.3351 20.6724 30.2356 20.6973 29.3405 20.6973C28.7562 20.6973 28.3459 20.747 28.3459 20.8216C28.3459 21.0205 26.9908 20.9708 26.7794 20.7719C26.6675 20.66 26.6054 20.3368 26.6054 19.9016V19.2054H27.4756C27.9729 19.2054 28.3459 19.1557 28.3459 19.0811C28.3459 19.0065 28.7562 18.9568 29.3405 18.9568H30.3351V19.4416ZM39.2864 19.0811C39.2864 19.1557 39.6221 19.2054 40.0324 19.2054H40.7783V19.7649C40.7783 20.5481 40.3805 20.9459 39.5973 20.9459C39.2864 20.9459 39.0378 20.8838 39.0378 20.8216C39.0378 20.747 38.64 20.6973 38.0929 20.6973C36.9367 20.6973 36.8 20.5854 36.8 19.653V18.9568H38.0432C38.7892 18.9568 39.2864 19.0065 39.2864 19.0811ZM21.0729 22.0027C21.247 22.1643 21.3837 22.3881 21.3837 22.5C21.3837 22.5995 21.4459 22.6865 21.5081 22.6865C21.6946 22.6865 21.6573 23.2957 21.4583 23.507C21.3589 23.6065 21.1848 23.6811 21.0854 23.6811C20.9735 23.6811 20.8864 23.7308 20.8864 23.8054C20.8864 23.8676 20.7746 23.9297 20.6378 23.9297C20.501 23.9297 20.3892 23.9795 20.3892 24.0541C20.3892 24.1162 20.2773 24.1784 20.1405 24.1784C20.0037 24.1784 19.8919 24.2281 19.8919 24.3027C19.8919 24.5638 19.0216 24.427 18.7108 24.1162C18.3378 23.7557 18.2881 23.1838 18.6237 23.1838C18.7481 23.1838 18.9221 23.0719 19.0216 22.9351C19.121 22.7984 19.2827 22.6865 19.3946 22.6865C19.5064 22.6865 19.6681 22.5746 19.7675 22.4378C19.867 22.3011 20.0286 22.1892 20.1405 22.1892C20.2524 22.1892 20.414 22.0773 20.5135 21.9405C20.7373 21.6297 20.7124 21.6297 21.0729 22.0027ZM46.6216 21.9405C46.721 22.0773 46.8827 22.1892 46.9946 22.1892C47.1064 22.1892 47.2681 22.3011 47.3675 22.4378C47.467 22.5746 47.6286 22.6865 47.7405 22.6865C47.8524 22.6865 48.014 22.7984 48.1135 22.9351C48.2129 23.0719 48.387 23.1838 48.5113 23.1838C48.847 23.1838 48.7973 23.7557 48.4243 24.1162C48.1135 24.427 47.2432 24.5638 47.2432 24.3027C47.2432 24.2281 47.1313 24.1784 46.9946 24.1784C46.8578 24.1784 46.7459 24.1162 46.7459 24.0541C46.7459 23.9795 46.634 23.9297 46.4973 23.9297C46.3605 23.9297 46.2486 23.8676 46.2486 23.8054C46.2486 23.7308 46.1616 23.6811 46.0497 23.6811C45.9502 23.6811 45.7762 23.6065 45.6767 23.507C45.4778 23.2957 45.4405 22.6865 45.627 22.6865C45.7016 22.6865 45.7513 22.5995 45.7513 22.5C45.7513 22.3259 46.2237 21.7168 46.3729 21.7043C46.4102 21.6919 46.5221 21.8038 46.6216 21.9405ZM12.4324 22.3135C12.4324 22.3757 12.6313 22.4378 12.8675 22.4378C13.2405 22.4378 13.427 22.5497 13.9864 23.1216C14.3594 23.4946 14.6702 23.88 14.6702 23.9919C14.6702 24.0914 14.7324 24.1784 14.7946 24.1784C14.8692 24.1784 14.9189 24.34 14.9189 24.5513C14.9189 24.7503 14.981 24.9243 15.0432 24.9243C15.1178 24.9243 15.1675 25.1978 15.1675 25.5459C15.1675 25.8816 15.1178 26.1676 15.0432 26.1676C14.981 26.1676 14.9189 26.3292 14.9189 26.5405C14.9189 26.7395 14.8692 26.9135 14.7946 26.9135C14.7324 26.9135 14.6702 27.0751 14.6702 27.2865C14.6702 27.4854 14.6205 27.6595 14.5459 27.6595C14.4837 27.6595 14.4216 27.7714 14.4216 27.9081C14.4216 28.0449 14.3719 28.1568 14.2973 28.1568C14.2351 28.1568 14.1729 28.3184 14.1729 28.5297C14.1729 28.7286 14.1232 28.9027 14.0486 28.9027C13.9864 28.9027 13.9243 29.0643 13.9243 29.2757C13.9243 29.4746 13.8746 29.6486 13.8 29.6486C13.7378 29.6486 13.6756 29.7357 13.6756 29.8351C13.6756 30.0714 12.6313 31.1405 12.3951 31.1405C12.3081 31.1405 12.1589 31.2524 12.0594 31.3892C11.96 31.5384 11.7362 31.6378 11.5373 31.6378C11.3508 31.6378 11.1892 31.6876 11.1892 31.7622C11.1892 31.8368 10.8535 31.8865 10.4432 31.8865C10.0329 31.8865 9.69734 31.8368 9.69734 31.7622C9.69734 31.6876 9.58544 31.6378 9.44865 31.6378C9.31189 31.6378 9.2 31.5757 9.2 31.5135C9.2 31.4389 9.11297 31.3892 9.00108 31.3892C8.76487 31.3892 8.45406 31.0908 8.45406 30.867C8.45406 30.7676 8.34216 30.6184 8.20541 30.5189C8.05622 30.4195 7.95676 30.1957 7.95676 29.9968C7.95676 29.8103 7.90703 29.6486 7.83243 29.6486C7.77027 29.6486 7.70811 29.5368 7.70811 29.4C7.70811 29.2632 7.77027 29.1514 7.83243 29.1514C7.90703 29.1514 7.95676 28.9276 7.95676 28.6541C7.95676 28.3805 8.01892 28.1568 8.08108 28.1568C8.15568 28.1568 8.20541 28.0449 8.20541 27.9081C8.20541 27.7714 8.26757 27.6595 8.32973 27.6595C8.40433 27.6595 8.45406 27.4854 8.45406 27.2865C8.45406 27.0751 8.51622 26.9135 8.57838 26.9135C8.65297 26.9135 8.70271 26.7395 8.70271 26.5405C8.70271 26.3292 8.76487 26.1676 8.82703 26.1676C8.90162 26.1676 8.95135 25.9935 8.95135 25.7946C8.95135 25.5832 9.01352 25.4216 9.07568 25.4216C9.15027 25.4216 9.2 25.3097 9.2 25.173C9.2 25.0362 9.26216 24.9243 9.32433 24.9243C9.39892 24.9243 9.44865 24.7503 9.44865 24.5513C9.44865 24.34 9.51084 24.1784 9.57294 24.1784C9.64754 24.1784 9.69734 24.0416 9.69734 23.8676C9.69734 23.507 10.4308 22.6865 10.754 22.6865C10.8535 22.6865 10.9405 22.6243 10.9405 22.5622C10.9405 22.4876 11.1146 22.4378 11.3135 22.4378C11.5248 22.4378 11.6864 22.3757 11.6864 22.3135C11.6864 22.2389 11.8605 22.1892 12.0594 22.1892C12.2708 22.1892 12.4324 22.2389 12.4324 22.3135ZM55.4486 22.3135C55.4486 22.3757 55.6227 22.4378 55.8216 22.4378C56.0329 22.4378 56.1946 22.4876 56.1946 22.5622C56.1946 22.6243 56.2816 22.6865 56.381 22.6865C56.7043 22.6865 57.4378 23.507 57.4378 23.8676C57.4378 24.0416 57.5 24.1784 57.5621 24.1784C57.6367 24.1784 57.6864 24.34 57.6864 24.5513C57.6864 24.7503 57.7486 24.9243 57.8108 24.9243C57.8854 24.9243 57.9351 25.0362 57.9351 25.173C57.9351 25.3097 57.9973 25.4216 58.0594 25.4216C58.134 25.4216 58.1837 25.5832 58.1837 25.7946C58.1837 25.9935 58.2459 26.1676 58.3081 26.1676C58.3827 26.1676 58.4324 26.3292 58.4324 26.5405C58.4324 26.7395 58.4946 26.9135 58.5567 26.9135C58.6313 26.9135 58.681 27.0751 58.681 27.2865C58.681 27.4854 58.7432 27.6595 58.8054 27.6595C58.88 27.6595 58.9297 27.7714 58.9297 27.9081C58.9297 28.0449 58.9919 28.1568 59.054 28.1568C59.1286 28.1568 59.1783 28.3805 59.1783 28.6416C59.1783 28.9151 59.2529 29.1638 59.34 29.2011C59.4643 29.2632 59.4643 29.2881 59.34 29.3503C59.2529 29.3876 59.1783 29.6238 59.1783 29.8849C59.1783 30.1957 59.1037 30.3946 58.9297 30.5189C58.7929 30.6184 58.681 30.7924 58.681 30.9168C58.681 31.0535 58.594 31.1405 58.4573 31.1405C58.3329 31.1405 58.1589 31.2524 58.0594 31.3892C57.96 31.5259 57.7859 31.6378 57.6616 31.6378C57.5373 31.6378 57.4378 31.6876 57.4378 31.7622C57.4378 31.8368 57.1021 31.8865 56.6919 31.8865C56.2816 31.8865 55.9459 31.8368 55.9459 31.7622C55.9459 31.6876 55.7843 31.6378 55.5978 31.6378C55.3989 31.6378 55.1751 31.5384 55.0756 31.3892C54.9762 31.2524 54.827 31.1405 54.74 31.1405C54.5037 31.1405 53.4594 30.0714 53.4594 29.8351C53.4594 29.7357 53.4097 29.6486 53.3351 29.6486C53.2729 29.6486 53.2108 29.4746 53.2108 29.2757C53.2108 29.0643 53.161 28.9027 53.0864 28.9027C53.0243 28.9027 52.9621 28.7286 52.9621 28.5297C52.9621 28.3184 52.9124 28.1568 52.8378 28.1568C52.7756 28.1568 52.7135 28.0449 52.7135 27.9081C52.7135 27.7714 52.6637 27.6595 52.5892 27.6595C52.527 27.6595 52.4648 27.4854 52.4648 27.2865C52.4648 27.0751 52.4151 26.9135 52.3405 26.9135C52.2783 26.9135 52.2162 26.7395 52.2162 26.5405C52.2162 26.3292 52.1664 26.1676 52.0919 26.1676C52.0297 26.1676 51.9675 25.8816 51.9675 25.5459C51.9675 25.1978 52.0297 24.9243 52.0919 24.9243C52.1664 24.9243 52.2162 24.7503 52.2162 24.5513C52.2162 24.34 52.2783 24.1784 52.3405 24.1784C52.4151 24.1784 52.4648 24.0914 52.4648 23.9919C52.4648 23.88 52.7756 23.4946 53.1486 23.1216C53.7081 22.5497 53.8946 22.4378 54.2675 22.4378C54.5037 22.4378 54.7027 22.3757 54.7027 22.3135C54.7027 22.2389 54.8767 22.1892 55.0756 22.1892C55.287 22.1892 55.4486 22.2389 55.4486 22.3135ZM16.9081 24.1535C16.9081 24.2778 17.02 24.4519 17.1567 24.5513C17.2935 24.6508 17.4054 24.8124 17.4054 24.9119C17.4054 24.9989 17.5297 25.1978 17.6913 25.3346C17.8778 25.4962 17.9151 25.5957 17.8156 25.633C17.7286 25.6703 17.654 25.7946 17.654 25.9314C17.654 26.0557 17.6043 26.1676 17.5297 26.1676C17.4675 26.1676 17.4054 26.2795 17.4054 26.4162C17.4054 26.6151 17.3183 26.6649 17.0324 26.6649H16.6594V25.6703C16.6594 25.0859 16.6097 24.6757 16.5351 24.6757C16.4729 24.6757 16.4108 24.5016 16.4108 24.3027C16.4108 24.0168 16.4605 23.9297 16.6594 23.9297C16.821 23.9297 16.9081 24.0168 16.9081 24.1535ZM50.7243 24.3027C50.7243 24.5016 50.6746 24.6757 50.6 24.6757C50.5254 24.6757 50.4756 25.0859 50.4756 25.6703V26.6649H50.1027C49.8167 26.6649 49.7297 26.6151 49.7297 26.4162C49.7297 26.2795 49.68 26.1676 49.6054 26.1676C49.5432 26.1676 49.481 26.0557 49.481 25.9314C49.481 25.7946 49.4064 25.6703 49.3319 25.633C49.22 25.5957 49.2573 25.4962 49.4562 25.3346C49.6054 25.1978 49.7297 24.9989 49.7297 24.9119C49.7297 24.8124 49.8416 24.6508 49.9783 24.5513C50.1151 24.4519 50.227 24.2778 50.227 24.1535C50.227 24.0168 50.314 23.9297 50.4756 23.9297C50.6746 23.9297 50.7243 24.0168 50.7243 24.3027ZM16.4108 28.0324C16.4108 28.0946 16.5227 28.1568 16.6594 28.1568C16.7962 28.1568 16.9081 28.2065 16.9081 28.2811C16.9081 28.3432 17.02 28.4054 17.1567 28.4054C17.3183 28.4054 17.4054 28.4924 17.4054 28.6541C17.4054 28.7908 17.4675 28.9027 17.5297 28.9027C17.6043 28.9027 17.654 29.0146 17.654 29.1514C17.654 29.2881 17.6043 29.4 17.5297 29.4C17.4675 29.4 17.4054 29.5616 17.4054 29.773C17.4054 29.9719 17.3556 30.1459 17.281 30.1459C17.2189 30.1459 17.1567 30.3076 17.1567 30.5189C17.1567 30.7178 17.107 30.8919 17.0324 30.8919C16.9702 30.8919 16.9081 31.0038 16.9081 31.1405C16.9081 31.3519 16.821 31.3892 16.2864 31.3892C15.9508 31.3892 15.6648 31.327 15.6648 31.2649C15.6648 31.1903 15.5032 31.1405 15.2919 31.1405C14.9562 31.1405 14.9189 31.1032 14.9189 30.7676C14.9189 30.5562 14.981 30.3946 15.0432 30.3946C15.1178 30.3946 15.1675 30.2827 15.1675 30.1459C15.1675 30.0092 15.2297 29.8973 15.2919 29.8973C15.3664 29.8973 15.4162 29.7232 15.4162 29.5243C15.4162 29.313 15.4783 29.1514 15.5405 29.1514C15.6151 29.1514 15.6648 28.9773 15.6648 28.7784C15.6648 28.567 15.727 28.4054 15.7892 28.4054C15.8637 28.4054 15.9135 28.2935 15.9135 28.1568C15.9135 27.9951 16.0005 27.9081 16.1621 27.9081C16.2989 27.9081 16.4108 27.9578 16.4108 28.0324ZM51.2216 28.1568C51.2216 28.2935 51.2837 28.4054 51.3459 28.4054C51.4205 28.4054 51.4702 28.567 51.4702 28.7784C51.4702 28.9773 51.5324 29.1514 51.5946 29.1514C51.6691 29.1514 51.7189 29.313 51.7189 29.5243C51.7189 29.7232 51.781 29.8973 51.8432 29.8973C51.9178 29.8973 51.9675 30.0092 51.9675 30.1459C51.9675 30.2827 52.0297 30.3946 52.0919 30.3946C52.1664 30.3946 52.2162 30.5562 52.2162 30.7676C52.2162 31.1032 52.1789 31.1405 51.8432 31.1405C51.6443 31.1405 51.4702 31.1903 51.4702 31.2649C51.4702 31.327 51.1967 31.3892 50.8486 31.3892C50.2394 31.3892 50.227 31.3768 50.227 31.0162C50.227 30.8049 50.1773 30.6432 50.1027 30.6432C50.0405 30.6432 49.9783 30.4692 49.9783 30.2703C49.9783 30.0589 49.9286 29.8973 49.854 29.8973C49.7919 29.8973 49.7297 29.6486 49.7297 29.3378C49.7297 28.6665 50.14 28.1568 50.6621 28.1568C50.8362 28.1568 50.9729 28.0946 50.9729 28.0324C50.9729 27.9578 51.0351 27.9081 51.0973 27.9081C51.1719 27.9081 51.2216 28.02 51.2216 28.1568ZM14.4216 32.5081C14.4216 32.5703 14.6454 32.6324 14.9189 32.6324C15.3913 32.6324 15.4162 32.6573 15.4162 33.0054C15.4162 33.2043 15.3664 33.3784 15.2919 33.3784C15.2173 33.3784 15.1675 33.7141 15.1675 34.1243C15.1675 34.5346 15.1178 34.8703 15.0432 34.8703C14.9686 34.8703 14.9189 35.2059 14.9189 35.6162C14.9189 36.0265 14.8692 36.3622 14.7946 36.3622C14.7324 36.3622 14.6702 36.4741 14.6702 36.6108C14.6702 36.8097 14.5832 36.8595 14.2227 36.8595C13.7005 36.8595 13.427 36.6232 13.427 36.1881C13.427 36.0141 13.3773 35.8649 13.3027 35.8649C13.2405 35.8649 13.1783 35.6908 13.1783 35.4919C13.1783 35.2805 13.1286 35.1189 13.054 35.1189C12.9919 35.1189 12.9297 35.007 12.9297 34.8703C12.9297 34.7335 12.88 34.6216 12.8054 34.6216C12.7432 34.6216 12.681 34.5346 12.681 34.4227C12.681 34.3232 12.4573 34.0124 12.1837 33.7514C11.6243 33.2043 11.587 33.1297 11.9351 33.1297C12.0719 33.1297 12.1837 33.0676 12.1837 33.0054C12.1837 32.9308 12.2956 32.8811 12.4324 32.8811C12.5692 32.8811 12.681 32.8189 12.681 32.7568C12.681 32.6822 12.7929 32.6324 12.9297 32.6324C13.0664 32.6324 13.1783 32.5703 13.1783 32.5081C13.1783 32.4335 13.4643 32.3838 13.8 32.3838C14.1481 32.3838 14.4216 32.4335 14.4216 32.5081ZM53.9567 32.5081C53.9567 32.5703 54.0686 32.6324 54.2054 32.6324C54.3421 32.6324 54.454 32.6822 54.454 32.7568C54.454 32.8189 54.5659 32.8811 54.7027 32.8811C54.8394 32.8811 54.9513 32.9308 54.9513 33.0054C54.9513 33.0676 55.0632 33.1297 55.2 33.1297C55.5481 33.1297 55.5108 33.2043 54.9513 33.7514C54.6778 34.0124 54.454 34.3232 54.454 34.4227C54.454 34.5346 54.4043 34.6216 54.3297 34.6216C54.2675 34.6216 54.2054 34.7335 54.2054 34.8703C54.2054 35.007 54.1556 35.1189 54.081 35.1189C54.0189 35.1189 53.9567 35.2805 53.9567 35.4919C53.9567 35.6908 53.907 35.8649 53.8324 35.8649C53.7702 35.8649 53.7081 36.0141 53.7081 36.1881C53.7081 36.6232 53.4346 36.8595 52.9124 36.8595C52.5519 36.8595 52.4648 36.8097 52.4648 36.6108C52.4648 36.4741 52.4151 36.3622 52.3405 36.3622C52.2659 36.3622 52.2162 36.0265 52.2162 35.6162C52.2162 35.2059 52.1664 34.8703 52.0919 34.8703C52.0173 34.8703 51.9675 34.5346 51.9675 34.1243C51.9675 33.7141 51.9178 33.3784 51.8432 33.3784C51.781 33.3784 51.7189 33.2043 51.7189 33.0054C51.7189 32.6449 51.7313 32.6324 52.3405 32.6324C52.6886 32.6324 52.9621 32.5703 52.9621 32.5081C52.9621 32.4335 53.1859 32.3838 53.4594 32.3838C53.7329 32.3838 53.9567 32.4335 53.9567 32.5081ZM8.95135 33.5027C8.95135 33.5649 9.12541 33.627 9.32433 33.627C9.53564 33.627 9.69734 33.6768 9.69734 33.7514C9.69734 33.8135 9.79674 33.8757 9.92104 33.8757C10.0454 33.8757 10.2194 33.9876 10.3189 34.1243C10.4183 34.2611 10.5675 34.373 10.667 34.373C10.8783 34.373 11.1892 34.6838 11.1892 34.8951C11.1892 34.9946 11.301 35.1438 11.4378 35.2432C11.587 35.3427 11.6864 35.5665 11.6864 35.7654C11.6864 35.9519 11.7486 36.1135 11.8108 36.1135C11.8854 36.1135 11.9351 36.5238 11.9351 37.1081C11.9351 37.6924 11.8854 38.1027 11.8108 38.1027C11.7362 38.1027 11.6864 38.687 11.6864 39.5946C11.6864 40.5022 11.6367 41.0865 11.5621 41.0865C11.5 41.0865 11.4378 41.2481 11.4378 41.4595C11.4378 41.6584 11.3881 41.8324 11.3135 41.8324C11.2513 41.8324 11.1892 41.9195 11.1892 42.0189C11.1892 42.2551 10.3935 43.0757 10.1697 43.0757C10.0702 43.0757 9.92104 43.1876 9.82164 43.3243C9.72214 43.4735 9.49834 43.573 9.29946 43.573C9.11297 43.573 8.95135 43.6227 8.95135 43.6973C8.95135 43.7719 8.54108 43.8216 7.95676 43.8216C7.37243 43.8216 6.96216 43.7719 6.96216 43.6973C6.96216 43.6227 6.80054 43.573 6.61406 43.573C6.41514 43.573 6.19135 43.4735 6.09189 43.3243C5.99243 43.1876 5.84325 43.0757 5.74379 43.0757C5.52 43.0757 4.72433 42.2551 4.72433 42.0189C4.72433 41.9195 4.6746 41.8324 4.6 41.8324C4.53784 41.8324 4.47568 41.7205 4.47568 41.5838C4.47568 41.447 4.42595 41.3351 4.35135 41.3351C4.28919 41.3351 4.22703 41.0492 4.22703 40.7135C4.22703 40.3654 4.28919 40.0919 4.35135 40.0919C4.42595 40.0919 4.47568 39.5076 4.47568 38.6C4.47568 37.6924 4.52541 37.1081 4.6 37.1081C4.6746 37.1081 4.72433 36.8222 4.72433 36.4865C4.72433 36.1384 4.78649 35.8649 4.84865 35.8649C4.92325 35.8649 4.97298 35.753 4.97298 35.6162C4.97298 35.4795 5.03514 35.3676 5.0973 35.3676C5.17189 35.3676 5.22162 35.2805 5.22162 35.1811C5.22162 34.9324 6.27838 33.8757 6.52703 33.8757C6.62649 33.8757 6.71352 33.8135 6.71352 33.7514C6.71352 33.6768 6.82541 33.627 6.96216 33.627C7.09892 33.627 7.21081 33.5649 7.21081 33.5027C7.21081 33.4281 7.58379 33.3784 8.08108 33.3784C8.57838 33.3784 8.95135 33.4281 8.95135 33.5027ZM59.9243 33.5027C59.9243 33.5649 60.0362 33.627 60.1729 33.627C60.3097 33.627 60.4216 33.6768 60.4216 33.7514C60.4216 33.8135 60.5086 33.8757 60.6081 33.8757C60.8567 33.8757 61.9135 34.9324 61.9135 35.1811C61.9135 35.2805 61.9756 35.3676 62.0378 35.3676C62.1124 35.3676 62.1621 35.4795 62.1621 35.6162C62.1621 35.753 62.2243 35.8649 62.2864 35.8649C62.361 35.8649 62.4108 36.1384 62.4108 36.4865C62.4108 36.8222 62.4729 37.1081 62.5351 37.1081C62.6097 37.1081 62.6594 37.6427 62.6594 38.4757C62.6594 39.3086 62.7091 39.8432 62.7837 39.8432C62.8583 39.8432 62.9081 40.1789 62.9081 40.5892C62.9081 40.9995 62.8583 41.3351 62.7837 41.3351C62.7216 41.3351 62.6594 41.447 62.6594 41.5838C62.6594 41.7205 62.6097 41.8324 62.5351 41.8324C62.4729 41.8324 62.4108 41.9195 62.4108 42.0189C62.4108 42.2676 61.354 43.3243 61.1054 43.3243C61.0059 43.3243 60.9189 43.3741 60.9189 43.4486C60.9189 43.5108 60.7573 43.573 60.5459 43.573C60.347 43.573 60.1729 43.6227 60.1729 43.6973C60.1729 43.7719 59.7627 43.8216 59.1783 43.8216C58.594 43.8216 58.1837 43.7719 58.1837 43.6973C58.1837 43.6227 58.0221 43.573 57.8356 43.573C57.6367 43.573 57.4129 43.4735 57.3135 43.3243C57.214 43.1876 57.0648 43.0757 56.9654 43.0757C56.7416 43.0757 55.9459 42.2551 55.9459 42.0189C55.9459 41.9195 55.8962 41.8324 55.8216 41.8324C55.7594 41.8324 55.6973 41.6584 55.6973 41.4595C55.6973 41.2481 55.6475 41.0865 55.5729 41.0865C55.4983 41.0865 55.4486 40.5022 55.4486 39.5946C55.4486 38.687 55.3989 38.1027 55.3243 38.1027C55.2497 38.1027 55.2 37.6924 55.2 37.1081C55.2 36.5238 55.2497 36.1135 55.3243 36.1135C55.3989 36.1135 55.4486 35.9519 55.4486 35.7654C55.4486 35.5665 55.5481 35.3427 55.6973 35.2432C55.834 35.1438 55.9459 34.9946 55.9459 34.8951C55.9459 34.6838 56.2567 34.373 56.4681 34.373C56.5675 34.373 56.7167 34.2611 56.8162 34.1243C56.9156 33.9876 57.0897 33.8757 57.214 33.8757C57.3383 33.8757 57.4378 33.8135 57.4378 33.7514C57.4378 33.6768 57.6119 33.627 57.8108 33.627C58.0221 33.627 58.1837 33.5649 58.1837 33.5027C58.1837 33.4281 58.5567 33.3784 59.054 33.3784C59.5513 33.3784 59.9243 33.4281 59.9243 33.5027ZM13.6756 38.227C13.6756 38.2892 13.9616 38.3514 14.2973 38.3514H14.9189V39.2216C14.9189 39.7189 14.8692 40.0919 14.7946 40.0919C14.7324 40.0919 14.6702 40.2908 14.6702 40.5395C14.6702 41.0865 14.434 41.3351 13.9243 41.3351C13.2778 41.3351 13.1783 41.1238 13.1783 39.7189C13.1783 38.8984 13.2281 38.4011 13.34 38.2892C13.514 38.0778 13.6756 38.053 13.6756 38.227ZM53.7827 38.2768C53.907 38.4135 53.9567 38.7865 53.9567 39.7189C53.9567 41.1238 53.8573 41.3351 53.2108 41.3351C52.701 41.3351 52.4648 41.0865 52.4648 40.5395C52.4648 40.2908 52.4151 40.0919 52.3405 40.0919C52.2659 40.0919 52.2162 39.7189 52.2162 39.2216V38.3514H52.8378C53.1859 38.3514 53.4594 38.2892 53.4594 38.227C53.4594 38.053 53.5713 38.0778 53.7827 38.2768ZM13.2778 42.7897C13.427 42.9389 13.4394 43.0135 13.3275 43.0508C13.2405 43.0757 13.1783 43.3119 13.1783 43.5854C13.1783 43.8465 13.1286 44.0703 13.054 44.0703C12.9919 44.0703 12.9297 44.2941 12.9297 44.5676C12.9297 44.8411 12.88 45.0649 12.8054 45.0649C12.7432 45.0649 12.681 45.2886 12.681 45.5622C12.681 45.8357 12.6313 46.0595 12.5567 46.0595C12.4946 46.0595 12.4324 46.2832 12.4324 46.5568C12.4324 46.8303 12.3827 47.0541 12.3081 47.0541C12.2459 47.0541 12.1837 47.2778 12.1837 47.5514C12.1837 47.8249 12.134 48.0486 12.0594 48.0486C11.9973 48.0486 11.9351 48.1605 11.9351 48.2973C11.9351 48.5086 11.8481 48.5459 11.4378 48.5459H10.9405V47.9243C10.9405 47.5762 10.8908 47.3027 10.8162 47.3027C10.754 47.3027 10.6919 47.1908 10.6919 47.0541C10.6919 46.9173 10.6421 46.8054 10.5675 46.8054C10.5054 46.8054 10.4432 46.6935 10.4432 46.5568C10.4432 46.42 10.3935 46.3081 10.3189 46.3081C10.2567 46.3081 10.1946 46.2211 10.1946 46.1092C10.1946 45.9973 10.0329 45.7486 9.82164 45.5622C9.38649 45.1519 9.36162 45.0649 9.69734 45.0649C9.83404 45.0649 9.94594 45.0027 9.94594 44.9405C9.94594 44.8659 10.0578 44.8162 10.1946 44.8162C10.3313 44.8162 10.4432 44.7541 10.4432 44.6919C10.4432 44.6173 10.5427 44.5676 10.667 44.5676C10.7913 44.5676 10.9654 44.4557 11.0648 44.3189C11.1643 44.1822 11.3135 44.0703 11.4129 44.0703C11.6119 44.0703 11.9351 43.7719 11.9351 43.573C11.9351 43.3865 12.7059 42.6032 12.9048 42.5908C12.9919 42.5784 13.1659 42.6778 13.2778 42.7897ZM54.7648 43.0135C55.001 43.2497 55.2 43.4984 55.2 43.573C55.2 43.7719 55.5232 44.0703 55.7221 44.0703C55.8216 44.0703 55.9708 44.1822 56.0702 44.3189C56.1697 44.4557 56.3437 44.5676 56.4681 44.5676C56.5924 44.5676 56.6919 44.6173 56.6919 44.6919C56.6919 44.7541 56.8037 44.8162 56.9405 44.8162C57.0773 44.8162 57.1891 44.8659 57.1891 44.9405C57.1891 45.0027 57.301 45.0649 57.4378 45.0649C57.5746 45.0649 57.6864 45.1146 57.6864 45.1643C57.6864 45.2141 57.5746 45.3384 57.4378 45.4378C57.301 45.5373 57.1891 45.6989 57.1891 45.8108C57.1891 45.9227 57.0773 46.0843 56.9405 46.1838C56.8037 46.2832 56.6919 46.4573 56.6919 46.5816C56.6919 46.7059 56.6421 46.8054 56.5675 46.8054C56.5054 46.8054 56.4432 46.9173 56.4432 47.0541C56.4432 47.1908 56.3935 47.3027 56.3189 47.3027C56.2567 47.3027 56.1946 47.5762 56.1946 47.9243V48.5459H55.6973C55.287 48.5459 55.2 48.5086 55.2 48.2973C55.2 48.1605 55.1502 48.0486 55.0756 48.0486C55.0135 48.0486 54.9513 47.8249 54.9513 47.5514C54.9513 47.2778 54.9016 47.0541 54.827 47.0541C54.7648 47.0541 54.7027 46.8303 54.7027 46.5568C54.7027 46.2832 54.6529 46.0595 54.5783 46.0595C54.5162 46.0595 54.454 45.7735 54.454 45.4378C54.454 45.0897 54.4043 44.8162 54.3297 44.8162C54.2675 44.8162 54.2054 44.5924 54.2054 44.3189C54.2054 44.0454 54.1556 43.8216 54.081 43.8216C54.0189 43.8216 53.9567 43.5357 53.9567 43.2C53.9567 42.4292 54.1556 42.3919 54.7648 43.0135ZM6.96216 45.4378C6.96216 45.5 7.07406 45.5622 7.21081 45.5622C7.34757 45.5622 7.45946 45.6119 7.45946 45.6865C7.45946 45.7486 7.54649 45.8108 7.64595 45.8108C7.96919 45.8108 9.2 47.1411 9.2 47.4892C9.2 47.6632 9.26216 47.8 9.32433 47.8C9.39892 47.8 9.44865 48.2103 9.44865 48.7946C9.44865 49.3789 9.39892 49.7892 9.32433 49.7892C9.24973 49.7892 9.2 50.1249 9.2 50.5351C9.2 50.9454 9.15027 51.2811 9.07568 51.2811C9.00108 51.2811 8.95135 51.6168 8.95135 52.027C8.95135 52.4373 8.90162 52.773 8.82703 52.773C8.76487 52.773 8.70271 52.9346 8.70271 53.1459C8.70271 53.3449 8.65297 53.5189 8.57838 53.5189C8.51622 53.5189 8.45406 53.6059 8.45406 53.7054C8.45406 53.9416 7.65838 54.7622 7.4346 54.7622C7.33514 54.7622 7.18595 54.8741 7.08649 55.0108C6.98703 55.16 6.76325 55.2595 6.56433 55.2595C6.37784 55.2595 6.21622 55.3092 6.21622 55.3838C6.21622 55.4584 5.80595 55.5081 5.22162 55.5081C4.6373 55.5081 4.22703 55.4584 4.22703 55.3838C4.22703 55.3092 4.06541 55.2595 3.85406 55.2595C3.65514 55.2595 3.48108 55.1973 3.48108 55.1351C3.48108 55.0605 3.39406 55.0108 3.2946 55.0108C2.97135 55.0108 1.74054 53.6805 1.74054 53.3324C1.74054 53.1584 1.69081 53.0216 1.61622 53.0216C1.55406 53.0216 1.49189 52.7357 1.49189 52.4C1.49189 52.0519 1.55406 51.7784 1.61622 51.7784C1.69081 51.7784 1.74054 51.4924 1.74054 51.1568C1.74054 50.8086 1.80271 50.5351 1.86487 50.5351C1.93946 50.5351 1.98919 50.1995 1.98919 49.7892C1.98919 49.3789 2.03892 49.0432 2.11352 49.0432C2.18811 49.0432 2.23784 48.7076 2.23784 48.2973C2.23784 47.887 2.28757 47.5514 2.36216 47.5514C2.43676 47.5514 2.48649 47.4146 2.48649 47.2405C2.48649 46.8054 3.72973 45.5622 4.16487 45.5622C4.33892 45.5622 4.47568 45.5 4.47568 45.4378C4.47568 45.3632 4.97298 45.3135 5.71892 45.3135C6.46487 45.3135 6.96216 45.3632 6.96216 45.4378ZM62.6594 45.4378C62.6594 45.5 62.7962 45.5622 62.9702 45.5622C63.4054 45.5622 64.6486 46.8054 64.6486 47.2405C64.6486 47.4146 64.7108 47.5514 64.7729 47.5514C64.8475 47.5514 64.8973 47.887 64.8973 48.2973C64.8973 48.7076 64.947 49.0432 65.0216 49.0432C65.0962 49.0432 65.1459 49.3168 65.1459 49.6649C65.1459 50.0005 65.2081 50.2865 65.2702 50.2865C65.3448 50.2865 65.3946 50.6222 65.3946 51.0324C65.3946 51.4427 65.4443 51.7784 65.5189 51.7784C65.5935 51.7784 65.6432 52.0519 65.6432 52.4C65.6432 52.7357 65.5935 53.0216 65.5189 53.0216C65.4567 53.0216 65.3946 53.1584 65.3946 53.3324C65.3946 53.6805 64.1637 55.0108 63.8405 55.0108C63.741 55.0108 63.654 55.0605 63.654 55.1351C63.654 55.1973 63.4924 55.2595 63.281 55.2595C63.0821 55.2595 62.9081 55.3092 62.9081 55.3838C62.9081 55.4584 62.4978 55.5081 61.9135 55.5081C61.3291 55.5081 60.9189 55.4584 60.9189 55.3838C60.9189 55.3092 60.7573 55.2595 60.5708 55.2595C60.3718 55.2595 60.1481 55.16 60.0486 55.0108C59.9491 54.8741 59.8 54.7622 59.7005 54.7622C59.4767 54.7622 58.681 53.9416 58.681 53.7054C58.681 53.6059 58.6313 53.5189 58.5567 53.5189C58.4946 53.5189 58.4324 53.3449 58.4324 53.1459C58.4324 52.9346 58.3827 52.773 58.3081 52.773C58.2335 52.773 58.1837 52.4373 58.1837 52.027C58.1837 51.6168 58.134 51.2811 58.0594 51.2811C57.9848 51.2811 57.9351 50.9454 57.9351 50.5351C57.9351 50.1249 57.8854 49.7892 57.8108 49.7892C57.7362 49.7892 57.6864 49.3789 57.6864 48.7946C57.6864 48.2103 57.7362 47.8 57.8108 47.8C57.8854 47.8 57.9351 47.6632 57.9351 47.4892C57.9351 47.1411 59.1659 45.8108 59.4891 45.8108C59.5886 45.8108 59.6756 45.7486 59.6756 45.6865C59.6756 45.6119 59.7875 45.5622 59.9243 45.5622C60.061 45.5622 60.1729 45.5 60.1729 45.4378C60.1729 45.3632 60.6702 45.3135 61.4162 45.3135C62.1621 45.3135 62.6594 45.3632 62.6594 45.4378ZM11.4378 50.1622C11.4378 50.2243 11.587 50.2865 11.761 50.2865C12.2583 50.2865 12.4324 50.56 12.4324 51.3308C12.4324 51.7162 12.3827 52.027 12.3081 52.027C12.2459 52.027 12.1837 52.1886 12.1837 52.4C12.1837 52.6859 12.1216 52.773 11.9475 52.773C11.8108 52.773 11.674 52.8476 11.6367 52.9222C11.5746 53.0465 11.5497 53.0465 11.4875 52.9222C11.4502 52.8476 11.2016 52.773 10.9281 52.773H10.4432V52.1514C10.4432 51.8032 10.5054 51.5297 10.5675 51.5297C10.6421 51.5297 10.6919 51.1941 10.6919 50.7838V50.0378H11.0648C11.2762 50.0378 11.4378 50.0876 11.4378 50.1622ZM56.4432 50.6595C56.4432 50.9951 56.5054 51.2811 56.5675 51.2811C56.6421 51.2811 56.6919 51.6168 56.6919 52.027V52.773H56.207C55.9335 52.773 55.6848 52.8476 55.6475 52.9222C55.5854 53.0465 55.5605 53.0465 55.4983 52.9222C55.461 52.8476 55.3243 52.773 55.1875 52.773C55.0135 52.773 54.9513 52.6859 54.9513 52.4C54.9513 52.1886 54.9016 52.027 54.827 52.027C54.7648 52.027 54.7027 51.7162 54.7027 51.3308C54.7027 50.56 54.8767 50.2865 55.374 50.2865C55.5481 50.2865 55.6973 50.2243 55.6973 50.1622C55.6973 50.0876 55.8713 50.0378 56.0702 50.0378C56.4308 50.0378 56.4432 50.0503 56.4432 50.6595Z" fill="#995C19" stroke="#995C19" stroke-width="0.5"/>
</g>
</svg>
