<svg width="69" height="70" viewBox="0 0 69 70" fill="none" xmlns="http://www.w3.org/2000/svg">
<path d="M15.299 1.96018C11.254 3.40547 9.39933 8.06251 11.3499 11.9006C12.1653 13.4743 14.0999 14.9999 15.8906 15.4495L16.642 15.6422V32.793H16.0984C15.4589 32.793 14.6275 33.3229 14.1478 34.0456C13.7162 34.6879 13.7481 34.1901 13.1246 49.9759C12.517 65.2477 12.517 64.4448 13.1406 65.6813C14.8673 69.1821 19.6798 69.4873 21.7423 66.2273C22.6376 64.7981 22.6216 65.3602 21.9981 49.5262C21.4385 35.5069 21.4065 34.9288 21.0708 34.2383C20.6551 33.3872 19.8397 32.793 19.1042 32.793H18.5606V15.6422L19.6638 15.305C20.8949 14.9357 22.3818 13.924 23.0853 12.9926C25.8512 9.34721 24.5882 4.17629 20.4792 2.21712C19.5679 1.78354 19.2321 1.7193 17.8411 1.68718C16.5461 1.63901 16.0664 1.68718 15.299 1.96018ZM19.8077 4.04783C20.9429 4.62594 21.6463 5.36464 22.2219 6.61723C23.1332 8.60851 22.5097 11.1779 20.783 12.559C18.6405 14.2612 15.5708 14.0203 13.7961 11.9809C11.9574 9.89321 12.0694 6.98658 14.0679 4.99529C15.1711 3.91936 15.9545 3.59818 17.6173 3.58212C18.6565 3.56606 18.9603 3.6303 19.8077 4.04783ZM19.328 34.9128C19.408 35.0252 19.5039 35.9084 19.5359 36.888L19.5998 38.6544L15.4749 38.7508L15.5708 36.9522C15.6347 35.9726 15.7627 35.0573 15.8586 34.9449C16.0984 34.6398 19.0882 34.6237 19.328 34.9128ZM19.7437 41.818C19.7917 42.4604 20.0155 47.7276 20.2554 53.5088C20.687 64.5733 20.687 64.4287 19.9836 65.4244C19.1202 66.6288 16.9298 66.9018 15.7467 65.9383C15.4109 65.6653 14.9952 65.1674 14.8193 64.8302L14.4996 64.2039L14.9313 52.7861C15.1711 46.5232 15.3789 41.2238 15.3629 41.0151C15.3629 40.6618 15.3949 40.6618 17.5054 40.6618H19.6478L19.7437 41.818Z" fill="#995C19"/>
<path d="M36.3081 2.6345C31.8473 6.90613 31.6075 7.19518 31.4157 8.5923C31.2878 9.55582 31.5755 10.5193 32.4549 11.9968C32.8866 12.7033 33.4142 13.7472 33.638 14.3253C34.4215 16.3487 34.4694 16.9107 34.4694 25.0846V32.6965L33.7819 32.825C32.9026 32.9695 32.263 33.4352 31.9113 34.1899C31.6555 34.7199 31.5596 36.4864 31.0479 49.1728C30.6642 58.4387 30.5043 63.8665 30.6003 64.4286C30.8401 66.0826 32.1991 67.6885 33.7819 68.2185C34.8531 68.5717 36.7717 68.4754 37.6671 68.0097C38.9621 67.3352 39.9694 66.0023 40.2892 64.5731C40.4011 64.0753 40.2891 59.8037 39.9054 50.2166C39.6017 42.7171 39.3299 36.117 39.2979 35.571C39.186 33.9651 38.4345 33.0177 37.1395 32.841L36.4999 32.7607L36.42 24.7795C36.356 17.3122 36.34 16.7341 36.0203 15.5297C35.5726 13.8114 35.013 12.4625 34.1337 11.0172C33.2223 9.50765 33.1104 8.92953 33.5901 8.11053C33.7979 7.7733 35.029 6.4886 36.3241 5.26813C38.4025 3.30897 38.7063 2.97173 38.7063 2.52209C38.7063 1.8958 38.4505 1.63886 37.8429 1.63886C37.4592 1.63886 37.1075 1.86368 36.3081 2.6345ZM37.2514 35.0089C37.3313 35.1695 37.4273 36.0528 37.4432 36.9842L37.4752 38.6543L33.3982 38.7506L33.4462 36.8878C33.4941 35.4586 33.5741 34.9929 33.75 34.8805C33.8779 34.8002 34.6933 34.7199 35.5406 34.7199C36.8837 34.7199 37.1235 34.752 37.2514 35.0089ZM37.5871 40.774C37.5871 40.8543 37.811 46.1055 38.0668 52.4648L38.5464 64.0271L38.1307 64.8782C37.5871 65.9863 36.6918 66.5323 35.4447 66.5323C34.9651 66.5323 34.4055 66.452 34.1976 66.3396C33.654 66.0666 32.9505 65.3761 32.6787 64.8301C32.359 64.2359 32.375 63.8184 32.8706 51.3568C33.0944 45.9771 33.2703 41.3843 33.2703 41.1273V40.6616H35.4287C36.6118 40.6616 37.5871 40.7098 37.5871 40.774Z" fill="#995C19"/>
<path d="M51.0473 2.13649C49.8482 2.73067 48.9048 3.77449 48.4572 4.94678C48.2014 5.66942 48.1374 6.19936 48.1374 8.03006C48.1374 11.5309 48.745 13.1689 50.8074 15.2565C52.6781 17.1354 52.5342 16.3003 52.5821 25.1166L52.6301 32.7927H52.0865C51.479 32.7927 50.6476 33.2905 50.1679 33.9489C49.9121 34.2861 49.8162 34.7839 49.7043 36.1971C49.4644 39.457 48.5851 63.1919 48.665 64.1393C48.8729 66.5803 51.0313 68.4752 53.5734 68.4592C56.0836 68.4592 58.1461 66.6766 58.4658 64.2678C58.5138 63.8663 58.4019 59.8517 58.226 55.3552C58.0341 50.8427 57.7783 44.4834 57.6504 41.2235C57.5225 37.9475 57.3786 35.0569 57.3307 34.7679C57.1548 33.7722 56.0196 32.7927 55.0283 32.7927H54.5487L54.5007 25.0363C54.4368 15.7864 54.5327 16.2521 52.4383 14.1806C51.5109 13.2652 51.0473 12.6389 50.6636 11.8199C50.1679 10.7761 50.1359 10.5995 50.072 8.55999C50.024 6.1833 50.1519 5.46066 50.8074 4.68984C51.431 3.93507 52.2944 3.56572 53.3656 3.56572C55.1722 3.56572 56.4673 4.81831 56.5632 6.649C56.6592 8.14247 56.7231 8.31911 57.2347 8.54394C57.8263 8.78482 58.3219 8.54394 58.4658 7.96582C58.6417 7.27529 58.4338 5.4446 58.0981 4.67378C57.6184 3.59784 56.7231 2.68249 55.6199 2.12043C54.7725 1.70291 54.4688 1.63867 53.3336 1.63867C52.1984 1.63867 51.8946 1.70291 51.0473 2.13649ZM55.2842 34.9124C55.3801 35.0248 55.492 35.9402 55.556 36.9198L55.6679 38.7344H51.447L51.5749 36.9198C51.6388 35.9402 51.7667 35.0248 51.8467 34.9124C51.9586 34.7839 52.5182 34.7197 53.5734 34.7197C54.6286 34.7197 55.1882 34.7839 55.2842 34.9124ZM55.7158 41.3359C55.7638 41.7213 55.9876 46.9565 56.2275 52.9946C56.5312 60.9597 56.5952 64.0912 56.4673 64.4445C56.0196 65.7292 54.9004 66.5482 53.5894 66.5482C52.2624 66.5321 51.3031 65.9058 50.7755 64.7496C50.4877 64.0912 50.4877 63.8985 50.8394 55.2267C51.0313 50.3449 51.2391 45.0776 51.2871 43.5038L51.383 40.6614H55.6359L55.7158 41.3359Z" fill="#995C19"/>
<path d="M15.299 1.96018C11.254 3.40547 9.39933 8.06251 11.3499 11.9006C12.1653 13.4743 14.0999 14.9999 15.8906 15.4495L16.642 15.6422V32.793H16.0984C15.4589 32.793 14.6275 33.3229 14.1478 34.0456C13.7162 34.6879 13.7481 34.1901 13.1246 49.9759C12.517 65.2477 12.517 64.4448 13.1406 65.6813C14.8673 69.1821 19.6798 69.4873 21.7423 66.2273C22.6376 64.7981 22.6216 65.3602 21.9981 49.5262C21.4385 35.5069 21.4065 34.9288 21.0708 34.2383C20.6551 33.3872 19.8397 32.793 19.1042 32.793H18.5606V15.6422L19.6638 15.305C20.8949 14.9357 22.3818 13.924 23.0853 12.9926C25.8512 9.34721 24.5882 4.17629 20.4792 2.21712C19.5679 1.78354 19.2321 1.7193 17.8411 1.68718C16.5461 1.63901 16.0664 1.68718 15.299 1.96018ZM19.8077 4.04783C20.9429 4.62594 21.6463 5.36464 22.2219 6.61723C23.1332 8.60851 22.5097 11.1779 20.783 12.559C18.6405 14.2612 15.5708 14.0203 13.7961 11.9809C11.9574 9.89321 12.0694 6.98658 14.0679 4.99529C15.1711 3.91936 15.9545 3.59818 17.6173 3.58212C18.6565 3.56606 18.9603 3.6303 19.8077 4.04783ZM19.328 34.9128C19.408 35.0252 19.5039 35.9084 19.5359 36.888L19.5998 38.6544L15.4749 38.7508L15.5708 36.9522C15.6347 35.9726 15.7627 35.0573 15.8586 34.9449C16.0984 34.6398 19.0882 34.6237 19.328 34.9128ZM19.7437 41.818C19.7917 42.4604 20.0155 47.7276 20.2554 53.5088C20.687 64.5733 20.687 64.4287 19.9836 65.4244C19.1202 66.6288 16.9298 66.9018 15.7467 65.9383C15.4109 65.6653 14.9952 65.1674 14.8193 64.8302L14.4996 64.2039L14.9313 52.7861C15.1711 46.5232 15.3789 41.2238 15.3629 41.0151C15.3629 40.6618 15.3949 40.6618 17.5054 40.6618H19.6478L19.7437 41.818Z" stroke="#995C19"/>
<path d="M36.3081 2.6345C31.8473 6.90613 31.6075 7.19518 31.4157 8.5923C31.2878 9.55582 31.5755 10.5193 32.4549 11.9968C32.8866 12.7033 33.4142 13.7472 33.638 14.3253C34.4215 16.3487 34.4694 16.9107 34.4694 25.0846V32.6965L33.7819 32.825C32.9026 32.9695 32.263 33.4352 31.9113 34.1899C31.6555 34.7199 31.5596 36.4864 31.0479 49.1728C30.6642 58.4387 30.5043 63.8665 30.6003 64.4286C30.8401 66.0826 32.1991 67.6885 33.7819 68.2185C34.8531 68.5717 36.7717 68.4754 37.6671 68.0097C38.9621 67.3352 39.9694 66.0023 40.2892 64.5731C40.4011 64.0753 40.2891 59.8037 39.9054 50.2166C39.6017 42.7171 39.3299 36.117 39.2979 35.571C39.186 33.9651 38.4345 33.0177 37.1395 32.841L36.4999 32.7607L36.42 24.7795C36.356 17.3122 36.34 16.7341 36.0203 15.5297C35.5726 13.8114 35.013 12.4625 34.1337 11.0172C33.2223 9.50765 33.1104 8.92953 33.5901 8.11053C33.7979 7.7733 35.029 6.4886 36.3241 5.26813C38.4025 3.30897 38.7063 2.97173 38.7063 2.52209C38.7063 1.8958 38.4505 1.63886 37.8429 1.63886C37.4592 1.63886 37.1075 1.86368 36.3081 2.6345ZM37.2514 35.0089C37.3313 35.1695 37.4273 36.0528 37.4432 36.9842L37.4752 38.6543L33.3982 38.7506L33.4462 36.8878C33.4941 35.4586 33.5741 34.9929 33.75 34.8805C33.8779 34.8002 34.6933 34.7199 35.5406 34.7199C36.8837 34.7199 37.1235 34.752 37.2514 35.0089ZM37.5871 40.774C37.5871 40.8543 37.811 46.1055 38.0668 52.4648L38.5464 64.0271L38.1307 64.8782C37.5871 65.9863 36.6918 66.5323 35.4447 66.5323C34.9651 66.5323 34.4055 66.452 34.1976 66.3396C33.654 66.0666 32.9505 65.3761 32.6787 64.8301C32.359 64.2359 32.375 63.8184 32.8706 51.3568C33.0944 45.9771 33.2703 41.3843 33.2703 41.1273V40.6616H35.4287C36.6118 40.6616 37.5871 40.7098 37.5871 40.774Z" stroke="#995C19"/>
<path d="M51.0473 2.13649C49.8482 2.73067 48.9048 3.77449 48.4572 4.94678C48.2014 5.66942 48.1374 6.19936 48.1374 8.03006C48.1374 11.5309 48.745 13.1689 50.8074 15.2565C52.6781 17.1354 52.5342 16.3003 52.5821 25.1166L52.6301 32.7927H52.0865C51.479 32.7927 50.6476 33.2905 50.1679 33.9489C49.9121 34.2861 49.8162 34.7839 49.7043 36.1971C49.4644 39.457 48.5851 63.1919 48.665 64.1393C48.8729 66.5803 51.0313 68.4752 53.5734 68.4592C56.0836 68.4592 58.1461 66.6766 58.4658 64.2678C58.5138 63.8663 58.4019 59.8517 58.226 55.3552C58.0341 50.8427 57.7783 44.4834 57.6504 41.2235C57.5225 37.9475 57.3786 35.0569 57.3307 34.7679C57.1548 33.7722 56.0196 32.7927 55.0283 32.7927H54.5487L54.5007 25.0363C54.4368 15.7864 54.5327 16.2521 52.4383 14.1806C51.5109 13.2652 51.0473 12.6389 50.6636 11.8199C50.1679 10.7761 50.1359 10.5995 50.072 8.55999C50.024 6.1833 50.1519 5.46066 50.8074 4.68984C51.431 3.93507 52.2944 3.56572 53.3656 3.56572C55.1722 3.56572 56.4673 4.81831 56.5632 6.649C56.6592 8.14247 56.7231 8.31911 57.2347 8.54394C57.8263 8.78482 58.3219 8.54394 58.4658 7.96582C58.6417 7.27529 58.4338 5.4446 58.0981 4.67378C57.6184 3.59784 56.7231 2.68249 55.6199 2.12043C54.7725 1.70291 54.4688 1.63867 53.3336 1.63867C52.1984 1.63867 51.8946 1.70291 51.0473 2.13649ZM55.2842 34.9124C55.3801 35.0248 55.492 35.9402 55.556 36.9198L55.6679 38.7344H51.447L51.5749 36.9198C51.6388 35.9402 51.7667 35.0248 51.8467 34.9124C51.9586 34.7839 52.5182 34.7197 53.5734 34.7197C54.6286 34.7197 55.1882 34.7839 55.2842 34.9124ZM55.7158 41.3359C55.7638 41.7213 55.9876 46.9565 56.2275 52.9946C56.5312 60.9597 56.5952 64.0912 56.4673 64.4445C56.0196 65.7292 54.9004 66.5482 53.5894 66.5482C52.2624 66.5321 51.3031 65.9058 50.7755 64.7496C50.4877 64.0912 50.4877 63.8985 50.8394 55.2267C51.0313 50.3449 51.2391 45.0776 51.2871 43.5038L51.383 40.6614H55.6359L55.7158 41.3359Z" stroke="#995C19"/>
</svg>
